<svg xmlns="http://www.w3.org/2000/svg" width="16" height="16" viewBox="0 0 16 16">
  <path id="instagram" d="M526.154,1313H513.846a1.848,1.848,0,0,1-1.846-1.847v-12.307a1.848,1.848,0,0,1,1.846-1.847h12.308a1.848,1.848,0,0,1,1.846,1.847v12.307A1.848,1.848,0,0,1,526.154,1313Zm-12.308-9.231v6.77a.616.616,0,0,0,.616.615h11.076a.616.616,0,0,0,.617-.615v-6.77h-1.393a4.923,4.923,0,1,1-9.522,0Zm6.154-1.845a3.077,3.077,0,1,0,3.077,3.076A3.08,3.08,0,0,0,520,1301.923Zm3.717-3.077a.641.641,0,0,0-.64.64v1.92a.641.641,0,0,0,.64.64h1.92a.641.641,0,0,0,.64-.64v-1.92a.641.641,0,0,0-.64-.64Z" transform="translate(-512 -1296.999)" fill="rgba(255,255,255,0.3)"/>
</svg>
