<svg xmlns="http://www.w3.org/2000/svg" width="12.386" height="16" viewBox="0 0 12.386 16">
  <path id="pinterest" d="M558.568,1297c-4.366,0-6.568,3.131-6.568,5.741a3.539,3.539,0,0,0,1.882,3.511.316.316,0,0,0,.46-.23c.042-.161.143-.568.188-.737a.446.446,0,0,0-.132-.513,2.651,2.651,0,0,1-.607-1.8,4.352,4.352,0,0,1,4.525-4.4c2.468,0,3.824,1.508,3.824,3.522,0,2.65-1.173,4.886-2.914,4.886a1.422,1.422,0,0,1-1.451-1.77,19.71,19.71,0,0,0,.811-3.261,1.231,1.231,0,0,0-1.24-1.38c-.983,0-1.772,1.017-1.772,2.379a3.536,3.536,0,0,0,.293,1.454s-1.006,4.262-1.182,5.007a10.311,10.311,0,0,0-.027,3.493.122.122,0,0,0,.218.053,9.812,9.812,0,0,0,1.659-3.007c.112-.409.646-2.526.646-2.526a2.635,2.635,0,0,0,2.245,1.146c2.954,0,4.959-2.694,4.959-6.3a5.493,5.493,0,0,0-5.818-5.265Z" transform="translate(-552 -1296.999)" fill="rgba(255,255,255,0.3)"/>
</svg>
