<svg xmlns="http://www.w3.org/2000/svg" width="16" height="13.003" viewBox="0 0 16 13.003">
  <path id="twitter" d="M599,1299.539a6.556,6.556,0,0,1-1.885.516,3.291,3.291,0,0,0,1.443-1.816,6.57,6.57,0,0,1-2.085.8,3.285,3.285,0,0,0-5.594,2.994,9.319,9.319,0,0,1-6.766-3.43,3.287,3.287,0,0,0,1.016,4.383,3.266,3.266,0,0,1-1.487-.411,3.287,3.287,0,0,0,2.633,3.261,3.3,3.3,0,0,1-1.482.056,3.286,3.286,0,0,0,3.066,2.28,6.6,6.6,0,0,1-4.86,1.359,9.336,9.336,0,0,0,14.362-8.29,6.677,6.677,0,0,0,1.638-1.7Z" transform="translate(-583 -1298)" fill="rgba(255,255,255,0.3)"/>
</svg>
